<svg xmlns="http://www.w3.org/2000/svg" xmlns:xlink="http://www.w3.org/1999/xlink" width="16" height="16" viewBox="0 0 16 16"><defs><path id="s1r1a" d="M31.76 483.27c0-.57.47-1.04 1.04-1.04h9.95c.57 0 1.04.47 1.04 1.04v2.15h1.87c.57 0 1.04.47 1.04 1.04v9.37c0 .88-.72 1.6-1.6 1.6H33.36a1.6 1.6 0 0 1-1.6-1.6zm1.85 4.04c0 .29.23.52.52.52h7.33c.29 0 .52-.23.52-.52v-2.52a.52.52 0 0 0-.52-.52h-7.33a.52.52 0 0 0-.52.52zm0 3.77c0 .29.23.52.52.52h7.33c.29 0 .52-.23.52-.52v-.73a.52.52 0 0 0-.52-.52h-7.33a.52.52 0 0 0-.52.52zm0 3.27c0 .29.23.52.52.52h5.17c.29 0 .52-.23.52-.52v-.72a.52.52 0 0 0-.52-.52h-5.17a.52.52 0 0 0-.52.52zm9.54.03a.88.88 0 0 0 1.76 0v-6.55h-1.76z"/></defs><g><g transform="translate(-31 -482)"><use fill="#85858a" xlink:href="#s1r1a"/></g></g></svg>