<?xml version="1.0" encoding="UTF-8"?>
<svg width="16px" height="17px" viewBox="0 0 16 17" version="1.1" xmlns="http://www.w3.org/2000/svg" xmlns:xlink="http://www.w3.org/1999/xlink">
    <!-- Generator: Sketch 49 (51002) - http://www.bohemiancoding.com/sketch -->
    <title>Combined Shape</title>
    <desc>Created with Sketch.</desc>
    <defs></defs>
    <g id="cryptonix" stroke="none" stroke-width="1" fill="none" fill-rule="evenodd">
        <g id="Transfer-Copy" transform="translate(-31.000000, -242.000000)" fill="#85858A">
            <g id="Menu">
                <g id="ic" transform="translate(31.000000, 122.000000)">
                    <g id="Group-16" transform="translate(0.000000, 120.000000)">
                        <path d="M1.71120527,0.944227913 L14.7555835,0.944227913 C15.3299596,0.944227913 15.7955834,1.40985176 15.7955834,1.98422787 L15.7955834,15.104228 C15.7955834,15.6786041 15.3299596,16.1442279 14.7555835,16.1442279 L1.71120527,16.1442279 C1.13682915,16.1442279 0.67120531,15.6786041 0.67120531,15.104228 L0.67120531,1.98422787 C0.67120531,1.40985176 1.13682915,0.944227913 1.71120527,0.944227913 Z M10.944134,6.84468145 C10.6569459,6.84468145 10.424134,7.07749338 10.424134,7.36468144 L10.424134,9.90830996 C10.424134,10.195498 10.6569459,10.4283099 10.944134,10.4283099 L11.8145818,10.4283099 C12.1017699,10.4283099 12.3345818,10.195498 12.3345818,9.90830996 L12.3345818,7.36468144 C12.3345818,7.07749338 12.1017699,6.84468145 11.8145818,6.84468145 L10.944134,6.84468145 Z M7.94413395,6.84468145 C7.65694589,6.84468145 7.42413397,7.07749338 7.42413397,7.36468144 L7.42413397,9.90830996 C7.42413397,10.195498 7.65694589,10.4283099 7.94413395,10.4283099 L8.81458183,10.4283099 C9.10176989,10.4283099 9.33458181,10.195498 9.33458181,9.90830996 L9.33458181,7.36468144 C9.33458181,7.07749338 9.10176989,6.84468145 8.81458183,6.84468145 L7.94413395,6.84468145 Z M4.94413395,6.84468145 C4.65694589,6.84468145 4.42413397,7.07749338 4.42413397,7.36468144 L4.42413397,9.90830996 C4.42413397,10.195498 4.65694589,10.4283099 4.94413395,10.4283099 L5.81458183,10.4283099 C6.10176989,10.4283099 6.33458181,10.195498 6.33458181,9.90830996 L6.33458181,7.36468144 C6.33458181,7.07749338 6.10176989,6.84468145 5.81458183,6.84468145 L4.94413395,6.84468145 Z" id="Combined-Shape"></path>
                    </g>
                </g>
            </g>
        </g>
    </g>
</svg>