<svg xmlns="http://www.w3.org/2000/svg" xmlns:xlink="http://www.w3.org/1999/xlink" width="16" height="17" viewBox="0 0 16 17"><defs><path id="gidaa" d="M31.72 363.89c0-.57.47-1.04 1.04-1.04H45.7c.57 0 1.04.47 1.04 1.04v13.52c0 .57-.47 1.04-1.04 1.04H32.76c-.57 0-1.04-.47-1.04-1.04zm2 2.61c0 .29.22.52.51.52h9.93c.29 0 .52-.23.52-.52v-1.64a.52.52 0 0 0-.52-.52h-9.93a.52.52 0 0 0-.52.52zm1.68 4.97c0 .29.24.52.52.52h1.63c.3 0 .52-.23.52-.52v-1.64a.52.52 0 0 0-.52-.52h-1.63a.52.52 0 0 0-.52.52zm4.92 0c0 .29.23.52.52.52h1.63c.28 0 .52-.23.52-.52v-1.64a.52.52 0 0 0-.52-.52h-1.63a.52.52 0 0 0-.52.52zm-4.92 4.4c0 .29.24.52.52.52h1.63c.3 0 .52-.23.52-.52v-1.65a.52.52 0 0 0-.52-.52h-1.63a.52.52 0 0 0-.52.52zm4.92 0c0 .29.23.52.52.52h1.63c.28 0 .52-.23.52-.52v-1.65a.52.52 0 0 0-.52-.52h-1.63a.52.52 0 0 0-.52.52z"/></defs><g><g transform="translate(-31 -362)"><use fill="#85858a" xlink:href="#gidaa"/></g></g></svg>