<svg xmlns="http://www.w3.org/2000/svg" xmlns:xlink="http://www.w3.org/1999/xlink" width="15" height="16" viewBox="0 0 15 16"><defs><path id="4jfla" d="M32.07 429.86a7.2 7.2 0 0 1 5.22-6.93v-1.62h3.89v1.62a7.2 7.2 0 0 1-1.95 14.13 7.18 7.18 0 0 1-7.16-7.2zm6.21.98h.02l4.63 1.69c.27.1.57-.04.67-.31l.3-.82a.52.52 0 0 0-.31-.67l-3.4-1.23v-3.62a.52.52 0 0 0-.52-.52h-.87a.52.52 0 0 0-.52.52V430.83zm.02 0h-.02v-.03l.65-1.77 1.26.46v1.34z"/></defs><g><g transform="translate(-32 -421)"><use fill="#85858a" xlink:href="#4jfla"/></g></g></svg>