<svg xmlns="http://www.w3.org/2000/svg" xmlns:xlink="http://www.w3.org/1999/xlink" width="16" height="17" viewBox="0 0 16 17"><defs><path id="gy5da" d="M31.67 184.6c0-.57.47-1.04 1.04-1.04h12.65c.57 0 1.04.47 1.04 1.04v1.56h-8.64c-.57 0-1.04.47-1.04 1.04v8.32c0 .57.47 1.04 1.04 1.04h8.64v1.56c0 .57-.47 1.04-1.04 1.04H32.71c-.57 0-1.04-.47-1.04-1.04zm7 4.16c0-.57.47-1.04 1.04-1.04h6.04c.57 0 1.04.47 1.04 1.04v5.2c0 .57-.47 1.04-1.04 1.04h-6.04c-.57 0-1.04-.47-1.04-1.04zm2.05 3.43c0 .29.23.52.52.52h1.44c.28 0 .52-.23.52-.52v-1.65a.52.52 0 0 0-.52-.52h-1.44a.52.52 0 0 0-.52.52z"/></defs><g><g transform="translate(-31 -183)"><use fill="#85858a" xlink:href="#gy5da"/></g></g></svg>