<svg xmlns="http://www.w3.org/2000/svg" xmlns:xlink="http://www.w3.org/1999/xlink" width="16" height="16" viewBox="0 0 16 16"><defs><path id="51dla" d="M31.67 303.98c0-.57.47-1.04 1.04-1.04h13.04c.57 0 1.04.47 1.04 1.04v13.12c0 .57-.47 1.04-1.04 1.04H32.71c-.57 0-1.04-.47-1.04-1.04zm2.46 10.92c0 .29.23.52.52.52h.86c.29 0 .52-.23.52-.52v-7.74a.52.52 0 0 0-.52-.52h-.86a.52.52 0 0 0-.52.52zm4.15 0c0 .29.24.52.52.52h.87c.28 0 .52-.23.52-.52v-5.14a.52.52 0 0 0-.52-.52h-.87a.52.52 0 0 0-.52.52zm4.15 0c0 .29.23.52.52.52h.86c.29 0 .52-.23.52-.52v-2.54a.52.52 0 0 0-.52-.52h-.86a.52.52 0 0 0-.52.52z"/></defs><g><g transform="translate(-31 -303)"><use fill="#85858a" xlink:href="#51dla"/></g></g></svg>